<?xml version="1.0" standalone="no"?>
<!DOCTYPE svg PUBLIC "-//W3C//DTD SVG 20010904//EN"
 "http://www.w3.org/TR/2001/REC-SVG-20010904/DTD/svg10.dtd">
<svg version="1.0" xmlns="http://www.w3.org/2000/svg"
 width="256.000000pt" height="256.000000pt" viewBox="0 0 256.000000 256.000000"
 preserveAspectRatio="xMidYMid meet">

<g transform="translate(0.000000,256.000000) scale(0.100000,-0.100000)"
fill="#000000" stroke="none">
<path d="M1170 2546 c0 -2 9 -6 20 -9 11 -3 18 -1 14 4 -5 9 -34 13 -34 5z"/>
<path d="M2133 2515 c-101 -51 -158 -145 -157 -260 1 -158 121 -278 279 -279
119 -1 219 63 267 172 26 57 22 177 -7 237 -47 97 -130 148 -250 153 -70 3
-86 0 -132 -23z"/>
<path d="M936 2501 c-3 -4 6 -6 19 -3 14 2 25 6 25 8 0 8 -39 4 -44 -5z"/>
<path d="M740 2430 c-24 -15 -7 -19 20 -5 15 8 19 14 10 14 -8 1 -22 -3 -30
-9z"/>
<path d="M1814 2426 c11 -9 24 -16 30 -16 12 0 7 5 -24 19 -24 11 -24 11 -6
-3z"/>
<path d="M1146 2250 c-398 -63 -711 -343 -812 -725 -23 -86 -27 -120 -27 -245
0 -125 4 -159 27 -245 91 -343 358 -611 701 -701 85 -23 121 -27 240 -27 155
0 236 14 361 62 288 112 510 362 590 666 23 86 27 120 27 245 0 125 -4 159
-27 245 -91 343 -362 614 -701 700 -113 29 -282 40 -379 25z m640 -297 c66
-22 145 -101 167 -167 38 -111 13 -221 -67 -302 -87 -86 -207 -109 -316 -58
-69 32 -105 65 -138 129 -38 71 -38 188 -2 259 30 59 97 120 153 140 57 20
143 20 203 -1z m-1086 -808 l0 -285 158 0 157 0 -1 -32 -1 -33 -196 -3 -197
-2 0 320 0 320 40 0 40 0 0 -285z m1178 98 c55 -26 62 -52 62 -231 0 -163 4
-182 42 -182 23 0 25 -45 2 -54 -45 -17 -114 9 -114 43 0 6 -25 -3 -56 -20
-67 -35 -120 -37 -180 -9 -52 26 -79 75 -71 132 11 82 51 110 184 129 96 14
123 29 123 69 0 60 -74 94 -152 71 -30 -9 -43 -20 -51 -42 -10 -25 -16 -29
-50 -29 -38 0 -39 1 -32 28 9 36 30 68 59 87 53 35 166 39 234 8z m-708 -176
c0 -182 0 -184 25 -207 29 -28 92 -31 129 -6 51 33 60 68 64 239 l4 157 34 0
34 0 0 -230 0 -230 -35 0 c-31 0 -35 3 -35 25 l0 26 -40 -32 c-78 -63 -202
-47 -242 32 -15 29 -18 63 -18 222 l0 187 40 0 40 0 0 -183z"/>
<path d="M1830 1008 c-19 -4 -61 -12 -93 -18 -68 -14 -97 -38 -97 -80 0 -47
31 -70 91 -70 92 0 144 52 137 137 l-3 39 -35 -8z"/>
<path d="M420 2211 c0 -7 -4 -10 -8 -7 -5 3 -9 -2 -9 -10 0 -13 2 -13 16 0 8
9 12 19 8 22 -4 4 -7 2 -7 -5z"/>
<path d="M140 1843 c-6 -16 -15 -36 -20 -45 -6 -10 -6 -18 -1 -18 5 0 16 20
24 45 9 25 14 45 11 45 -2 0 -9 -12 -14 -27z"/>
<path d="M2420 1817 c0 -14 24 -57 32 -57 5 0 1 12 -9 28 -22 35 -23 36 -23
29z"/>
<path d="M67 1653 c-9 -15 -26 -85 -19 -79 7 8 32 86 27 86 -2 0 -6 -3 -8 -7z"/>
<path d="M2501 1604 c0 -11 3 -14 6 -6 3 7 2 16 -1 19 -3 4 -6 -2 -5 -13z"/>
<path d="M21 1434 c0 -11 3 -14 6 -6 3 7 2 16 -1 19 -3 4 -6 -2 -5 -13z"/>
<path d="M11 1214 c0 -11 3 -14 6 -6 3 7 2 16 -1 19 -3 4 -6 -2 -5 -13z"/>
<path d="M2532 1130 c0 -14 2 -19 5 -12 2 6 2 18 0 25 -3 6 -5 1 -5 -13z"/>
<path d="M50 961 c0 -11 4 -22 9 -25 4 -3 6 6 3 19 -5 30 -12 33 -12 6z"/>
<path d="M2501 964 c0 -11 3 -14 6 -6 3 7 2 16 -1 19 -3 4 -6 -2 -5 -13z"/>
<path d="M2491 933 c-1 -6 -4 -20 -7 -30 -5 -17 -5 -17 6 0 6 10 9 23 6 30 -3
9 -5 9 -5 0z"/>
<path d="M122 756 c6 -14 15 -26 20 -26 10 0 -7 36 -22 45 -6 4 -5 -5 2 -19z"/>
<path d="M2417 738 c-23 -56 -16 -58 11 -3 12 25 18 45 13 45 -4 0 -15 -19
-24 -42z"/>
<path d="M2165 391 c-3 -5 -2 -12 3 -15 5 -3 9 1 9 9 0 17 -3 19 -12 6z"/>
<path d="M720 146 c0 -3 9 -10 20 -16 11 -6 20 -8 20 -6 0 3 -9 10 -20 16 -11
6 -20 8 -20 6z"/>
<path d="M1803 138 c-31 -15 -29 -30 2 -16 14 6 25 15 25 20 0 9 1 10 -27 -4z"/>
<path d="M1588 53 c7 -3 16 -2 19 1 4 3 -2 6 -13 5 -11 0 -14 -3 -6 -6z"/>
</g>
</svg>
